<svg width="254" height="359" viewBox="0 0 254 359" fill="none" xmlns="http://www.w3.org/2000/svg">
<g opacity="0.2">
<circle cx="10.2976" cy="172.135" r="2.44411" transform="rotate(-90 10.2976 172.135)" fill="#4D1556"/>
<circle cx="10.2976" cy="153.28" r="2.44411" transform="rotate(-90 10.2976 153.28)" fill="#4D1556"/>
<circle cx="10.2976" cy="134.426" r="2.44411" transform="rotate(-90 10.2976 134.426)" fill="#4D1556"/>
<circle cx="10.2976" cy="115.571" r="2.44411" transform="rotate(-90 10.2976 115.571)" fill="#4D1556"/>
<circle cx="10.2976" cy="96.7165" r="2.44411" transform="rotate(-90 10.2976 96.7165)" fill="#4D1556"/>
<circle cx="10.2976" cy="77.862" r="2.44411" transform="rotate(-90 10.2976 77.862)" fill="#4D1556"/>
<circle cx="10.2976" cy="59.0075" r="2.44411" transform="rotate(-90 10.2976 59.0075)" fill="#4D1556"/>
<circle cx="10.2976" cy="40.1531" r="2.44411" transform="rotate(-90 10.2976 40.1531)" fill="#4D1556"/>
<circle cx="10.2976" cy="21.2986" r="2.44411" transform="rotate(-90 10.2976 21.2986)" fill="#4D1556"/>
<circle cx="10.2976" cy="2.44407" r="2.44411" transform="rotate(-90 10.2976 2.44407)" fill="#4D1556"/>
<circle cx="29.1531" cy="172.135" r="2.44411" transform="rotate(-90 29.1531 172.135)" fill="#4D1556"/>
<circle cx="29.1531" cy="153.28" r="2.44411" transform="rotate(-90 29.1531 153.28)" fill="#4D1556"/>
<circle cx="29.1531" cy="134.426" r="2.44411" transform="rotate(-90 29.1531 134.426)" fill="#4D1556"/>
<circle cx="29.1531" cy="115.571" r="2.44411" transform="rotate(-90 29.1531 115.571)" fill="#4D1556"/>
<circle cx="29.1531" cy="96.7165" r="2.44411" transform="rotate(-90 29.1531 96.7165)" fill="#4D1556"/>
<circle cx="29.1531" cy="77.862" r="2.44411" transform="rotate(-90 29.1531 77.862)" fill="#4D1556"/>
<circle cx="29.1531" cy="59.0075" r="2.44411" transform="rotate(-90 29.1531 59.0075)" fill="#4D1556"/>
<circle cx="29.1531" cy="40.1531" r="2.44411" transform="rotate(-90 29.1531 40.1531)" fill="#4D1556"/>
<circle cx="29.1531" cy="21.2986" r="2.44411" transform="rotate(-90 29.1531 21.2986)" fill="#4D1556"/>
<circle cx="29.1531" cy="2.44407" r="2.44411" transform="rotate(-90 29.1531 2.44407)" fill="#4D1556"/>
<circle cx="48.0086" cy="172.135" r="2.44411" transform="rotate(-90 48.0086 172.135)" fill="#4D1556"/>
<circle cx="48.0086" cy="153.28" r="2.44411" transform="rotate(-90 48.0086 153.28)" fill="#4D1556"/>
<circle cx="48.0086" cy="134.426" r="2.44411" transform="rotate(-90 48.0086 134.426)" fill="#4D1556"/>
<circle cx="48.0086" cy="115.571" r="2.44411" transform="rotate(-90 48.0086 115.571)" fill="#4D1556"/>
<circle cx="48.0086" cy="96.7165" r="2.44411" transform="rotate(-90 48.0086 96.7165)" fill="#4D1556"/>
<circle cx="48.0086" cy="77.862" r="2.44411" transform="rotate(-90 48.0086 77.862)" fill="#4D1556"/>
<circle cx="48.0086" cy="59.0075" r="2.44411" transform="rotate(-90 48.0086 59.0075)" fill="#4D1556"/>
<circle cx="48.0086" cy="40.1531" r="2.44411" transform="rotate(-90 48.0086 40.1531)" fill="#4D1556"/>
<circle cx="48.0086" cy="21.2986" r="2.44411" transform="rotate(-90 48.0086 21.2986)" fill="#4D1556"/>
<circle cx="48.0086" cy="2.44407" r="2.44411" transform="rotate(-90 48.0086 2.44407)" fill="#4D1556"/>
<circle cx="66.8621" cy="172.135" r="2.44411" transform="rotate(-90 66.8621 172.135)" fill="#4D1556"/>
<circle cx="66.8621" cy="153.28" r="2.44411" transform="rotate(-90 66.8621 153.28)" fill="#4D1556"/>
<circle cx="66.8621" cy="134.426" r="2.44411" transform="rotate(-90 66.8621 134.426)" fill="#4D1556"/>
<circle cx="66.8621" cy="115.571" r="2.44411" transform="rotate(-90 66.8621 115.571)" fill="#4D1556"/>
<circle cx="66.8621" cy="96.7165" r="2.44411" transform="rotate(-90 66.8621 96.7165)" fill="#4D1556"/>
<circle cx="66.8621" cy="77.862" r="2.44411" transform="rotate(-90 66.8621 77.862)" fill="#4D1556"/>
<circle cx="66.8621" cy="59.0075" r="2.44411" transform="rotate(-90 66.8621 59.0075)" fill="#4D1556"/>
<circle cx="66.8621" cy="40.1531" r="2.44411" transform="rotate(-90 66.8621 40.1531)" fill="#4D1556"/>
<circle cx="66.8621" cy="21.2986" r="2.44411" transform="rotate(-90 66.8621 21.2986)" fill="#4D1556"/>
<circle cx="66.8621" cy="2.44407" r="2.44411" transform="rotate(-90 66.8621 2.44407)" fill="#4D1556"/>
</g>
<g opacity="0.2">
<circle cx="10.2976" cy="356.556" r="2.44411" transform="rotate(-90 10.2976 356.556)" fill="#4D1556"/>
<circle cx="10.2976" cy="337.701" r="2.44411" transform="rotate(-90 10.2976 337.701)" fill="#4D1556"/>
<circle cx="10.2976" cy="318.847" r="2.44411" transform="rotate(-90 10.2976 318.847)" fill="#4D1556"/>
<circle cx="10.2976" cy="299.992" r="2.44411" transform="rotate(-90 10.2976 299.992)" fill="#4D1556"/>
<circle cx="10.2976" cy="281.138" r="2.44411" transform="rotate(-90 10.2976 281.138)" fill="#4D1556"/>
<circle cx="10.2976" cy="262.283" r="2.44411" transform="rotate(-90 10.2976 262.283)" fill="#4D1556"/>
<circle cx="10.2976" cy="243.429" r="2.44411" transform="rotate(-90 10.2976 243.429)" fill="#4D1556"/>
<circle cx="10.2976" cy="224.574" r="2.44411" transform="rotate(-90 10.2976 224.574)" fill="#4D1556"/>
<circle cx="10.2976" cy="205.72" r="2.44411" transform="rotate(-90 10.2976 205.72)" fill="#4D1556"/>
<circle cx="10.2976" cy="186.865" r="2.44411" transform="rotate(-90 10.2976 186.865)" fill="#4D1556"/>
<circle cx="29.1531" cy="356.556" r="2.44411" transform="rotate(-90 29.1531 356.556)" fill="#4D1556"/>
<circle cx="29.1531" cy="337.701" r="2.44411" transform="rotate(-90 29.1531 337.701)" fill="#4D1556"/>
<circle cx="29.1531" cy="318.847" r="2.44411" transform="rotate(-90 29.1531 318.847)" fill="#4D1556"/>
<circle cx="29.1531" cy="299.992" r="2.44411" transform="rotate(-90 29.1531 299.992)" fill="#4D1556"/>
<circle cx="29.1531" cy="281.138" r="2.44411" transform="rotate(-90 29.1531 281.138)" fill="#4D1556"/>
<circle cx="29.1531" cy="262.283" r="2.44411" transform="rotate(-90 29.1531 262.283)" fill="#4D1556"/>
<circle cx="29.1531" cy="243.429" r="2.44411" transform="rotate(-90 29.1531 243.429)" fill="#4D1556"/>
<circle cx="29.1531" cy="224.574" r="2.44411" transform="rotate(-90 29.1531 224.574)" fill="#4D1556"/>
<circle cx="29.1531" cy="205.72" r="2.44411" transform="rotate(-90 29.1531 205.72)" fill="#4D1556"/>
<circle cx="29.1531" cy="186.865" r="2.44411" transform="rotate(-90 29.1531 186.865)" fill="#4D1556"/>
<circle cx="48.0086" cy="356.556" r="2.44411" transform="rotate(-90 48.0086 356.556)" fill="#4D1556"/>
<circle cx="48.0086" cy="337.701" r="2.44411" transform="rotate(-90 48.0086 337.701)" fill="#4D1556"/>
<circle cx="48.0086" cy="318.847" r="2.44411" transform="rotate(-90 48.0086 318.847)" fill="#4D1556"/>
<circle cx="48.0086" cy="299.992" r="2.44411" transform="rotate(-90 48.0086 299.992)" fill="#4D1556"/>
<circle cx="48.0086" cy="281.138" r="2.44411" transform="rotate(-90 48.0086 281.138)" fill="#4D1556"/>
<circle cx="48.0086" cy="262.283" r="2.44411" transform="rotate(-90 48.0086 262.283)" fill="#4D1556"/>
<circle cx="48.0086" cy="243.429" r="2.44411" transform="rotate(-90 48.0086 243.429)" fill="#4D1556"/>
<circle cx="48.0086" cy="224.574" r="2.44411" transform="rotate(-90 48.0086 224.574)" fill="#4D1556"/>
<circle cx="48.0086" cy="205.72" r="2.44411" transform="rotate(-90 48.0086 205.72)" fill="#4D1556"/>
<circle cx="48.0086" cy="186.865" r="2.44411" transform="rotate(-90 48.0086 186.865)" fill="#4D1556"/>
<circle cx="66.8621" cy="356.556" r="2.44411" transform="rotate(-90 66.8621 356.556)" fill="#4D1556"/>
<circle cx="66.8621" cy="337.701" r="2.44411" transform="rotate(-90 66.8621 337.701)" fill="#4D1556"/>
<circle cx="66.8621" cy="318.847" r="2.44411" transform="rotate(-90 66.8621 318.847)" fill="#4D1556"/>
<circle cx="66.8621" cy="299.992" r="2.44411" transform="rotate(-90 66.8621 299.992)" fill="#4D1556"/>
<circle cx="66.8621" cy="281.138" r="2.44411" transform="rotate(-90 66.8621 281.138)" fill="#4D1556"/>
<circle cx="66.8621" cy="262.283" r="2.44411" transform="rotate(-90 66.8621 262.283)" fill="#4D1556"/>
<circle cx="66.8621" cy="243.429" r="2.44411" transform="rotate(-90 66.8621 243.429)" fill="#4D1556"/>
<circle cx="66.8621" cy="224.574" r="2.44411" transform="rotate(-90 66.8621 224.574)" fill="#4D1556"/>
<circle cx="66.8621" cy="205.72" r="2.44411" transform="rotate(-90 66.8621 205.72)" fill="#4D1556"/>
<circle cx="66.8621" cy="186.865" r="2.44411" transform="rotate(-90 66.8621 186.865)" fill="#4D1556"/>
</g>
<g opacity="0.2">
<circle cx="83.6179" cy="172.135" r="2.44411" transform="rotate(-90 83.6179 172.135)" fill="#4D1556"/>
<circle cx="83.6179" cy="153.28" r="2.44411" transform="rotate(-90 83.6179 153.28)" fill="#4D1556"/>
<circle cx="83.6179" cy="134.426" r="2.44411" transform="rotate(-90 83.6179 134.426)" fill="#4D1556"/>
<circle cx="83.6179" cy="115.571" r="2.44411" transform="rotate(-90 83.6179 115.571)" fill="#4D1556"/>
<circle cx="83.6179" cy="96.7165" r="2.44411" transform="rotate(-90 83.6179 96.7165)" fill="#4D1556"/>
<circle cx="83.6179" cy="77.862" r="2.44411" transform="rotate(-90 83.6179 77.862)" fill="#4D1556"/>
<circle cx="83.6179" cy="59.0075" r="2.44411" transform="rotate(-90 83.6179 59.0075)" fill="#4D1556"/>
<circle cx="83.6179" cy="40.1531" r="2.44411" transform="rotate(-90 83.6179 40.1531)" fill="#4D1556"/>
<circle cx="83.6179" cy="21.2986" r="2.44411" transform="rotate(-90 83.6179 21.2986)" fill="#4D1556"/>
<circle cx="83.6179" cy="2.44407" r="2.44411" transform="rotate(-90 83.6179 2.44407)" fill="#4D1556"/>
<circle cx="102.471" cy="172.135" r="2.44411" transform="rotate(-90 102.471 172.135)" fill="#4D1556"/>
<circle cx="102.471" cy="153.28" r="2.44411" transform="rotate(-90 102.471 153.28)" fill="#4D1556"/>
<circle cx="102.471" cy="134.426" r="2.44411" transform="rotate(-90 102.471 134.426)" fill="#4D1556"/>
<circle cx="102.471" cy="115.571" r="2.44411" transform="rotate(-90 102.471 115.571)" fill="#4D1556"/>
<circle cx="102.471" cy="96.7165" r="2.44411" transform="rotate(-90 102.471 96.7165)" fill="#4D1556"/>
<circle cx="102.471" cy="77.862" r="2.44411" transform="rotate(-90 102.471 77.862)" fill="#4D1556"/>
<circle cx="102.471" cy="59.0075" r="2.44411" transform="rotate(-90 102.471 59.0075)" fill="#4D1556"/>
<circle cx="102.471" cy="40.1531" r="2.44411" transform="rotate(-90 102.471 40.1531)" fill="#4D1556"/>
<circle cx="102.471" cy="21.2986" r="2.44411" transform="rotate(-90 102.471 21.2986)" fill="#4D1556"/>
<circle cx="102.471" cy="2.44407" r="2.44411" transform="rotate(-90 102.471 2.44407)" fill="#4D1556"/>
<circle cx="121.327" cy="172.135" r="2.44411" transform="rotate(-90 121.327 172.135)" fill="#4D1556"/>
<circle cx="121.327" cy="153.28" r="2.44411" transform="rotate(-90 121.327 153.28)" fill="#4D1556"/>
<circle cx="121.327" cy="134.426" r="2.44411" transform="rotate(-90 121.327 134.426)" fill="#4D1556"/>
<circle cx="121.327" cy="115.571" r="2.44411" transform="rotate(-90 121.327 115.571)" fill="#4D1556"/>
<circle cx="121.327" cy="96.7165" r="2.44411" transform="rotate(-90 121.327 96.7165)" fill="#4D1556"/>
<circle cx="121.327" cy="77.862" r="2.44411" transform="rotate(-90 121.327 77.862)" fill="#4D1556"/>
<circle cx="121.327" cy="59.0075" r="2.44411" transform="rotate(-90 121.327 59.0075)" fill="#4D1556"/>
<circle cx="121.327" cy="40.1531" r="2.44411" transform="rotate(-90 121.327 40.1531)" fill="#4D1556"/>
<circle cx="121.327" cy="21.2986" r="2.44411" transform="rotate(-90 121.327 21.2986)" fill="#4D1556"/>
<circle cx="121.327" cy="2.44407" r="2.44411" transform="rotate(-90 121.327 2.44407)" fill="#4D1556"/>
<circle cx="140.182" cy="172.135" r="2.44411" transform="rotate(-90 140.182 172.135)" fill="#4D1556"/>
<circle cx="140.182" cy="153.28" r="2.44411" transform="rotate(-90 140.182 153.28)" fill="#4D1556"/>
<circle cx="140.182" cy="134.426" r="2.44411" transform="rotate(-90 140.182 134.426)" fill="#4D1556"/>
<circle cx="140.182" cy="115.571" r="2.44411" transform="rotate(-90 140.182 115.571)" fill="#4D1556"/>
<circle cx="140.182" cy="96.7165" r="2.44411" transform="rotate(-90 140.182 96.7165)" fill="#4D1556"/>
<circle cx="140.182" cy="77.862" r="2.44411" transform="rotate(-90 140.182 77.862)" fill="#4D1556"/>
<circle cx="140.182" cy="59.0075" r="2.44411" transform="rotate(-90 140.182 59.0075)" fill="#4D1556"/>
<circle cx="140.182" cy="40.1531" r="2.44411" transform="rotate(-90 140.182 40.1531)" fill="#4D1556"/>
<circle cx="140.182" cy="21.2986" r="2.44411" transform="rotate(-90 140.182 21.2986)" fill="#4D1556"/>
<circle cx="140.182" cy="2.44407" r="2.44411" transform="rotate(-90 140.182 2.44407)" fill="#4D1556"/>
<circle cx="159.036" cy="172.135" r="2.44411" transform="rotate(-90 159.036 172.135)" fill="#4D1556"/>
<circle cx="159.036" cy="153.28" r="2.44411" transform="rotate(-90 159.036 153.28)" fill="#4D1556"/>
<circle cx="159.036" cy="134.426" r="2.44411" transform="rotate(-90 159.036 134.426)" fill="#4D1556"/>
<circle cx="159.036" cy="115.571" r="2.44411" transform="rotate(-90 159.036 115.571)" fill="#4D1556"/>
<circle cx="159.036" cy="96.7165" r="2.44411" transform="rotate(-90 159.036 96.7165)" fill="#4D1556"/>
<circle cx="159.036" cy="77.862" r="2.44411" transform="rotate(-90 159.036 77.862)" fill="#4D1556"/>
<circle cx="159.036" cy="59.0075" r="2.44411" transform="rotate(-90 159.036 59.0075)" fill="#4D1556"/>
<circle cx="159.036" cy="40.1531" r="2.44411" transform="rotate(-90 159.036 40.1531)" fill="#4D1556"/>
<circle cx="159.036" cy="21.2986" r="2.44411" transform="rotate(-90 159.036 21.2986)" fill="#4D1556"/>
<circle cx="159.036" cy="2.44407" r="2.44411" transform="rotate(-90 159.036 2.44407)" fill="#4D1556"/>
</g>
<g opacity="0.2">
<circle cx="83.6179" cy="356.556" r="2.44411" transform="rotate(-90 83.6179 356.556)" fill="#4D1556"/>
<circle cx="83.6179" cy="337.701" r="2.44411" transform="rotate(-90 83.6179 337.701)" fill="#4D1556"/>
<circle cx="83.6179" cy="318.847" r="2.44411" transform="rotate(-90 83.6179 318.847)" fill="#4D1556"/>
<circle cx="83.6179" cy="299.992" r="2.44411" transform="rotate(-90 83.6179 299.992)" fill="#4D1556"/>
<circle cx="83.6179" cy="281.138" r="2.44411" transform="rotate(-90 83.6179 281.138)" fill="#4D1556"/>
<circle cx="83.6179" cy="262.283" r="2.44411" transform="rotate(-90 83.6179 262.283)" fill="#4D1556"/>
<circle cx="83.6179" cy="243.429" r="2.44411" transform="rotate(-90 83.6179 243.429)" fill="#4D1556"/>
<circle cx="83.6179" cy="224.574" r="2.44411" transform="rotate(-90 83.6179 224.574)" fill="#4D1556"/>
<circle cx="83.6179" cy="205.72" r="2.44411" transform="rotate(-90 83.6179 205.72)" fill="#4D1556"/>
<circle cx="83.6179" cy="186.865" r="2.44411" transform="rotate(-90 83.6179 186.865)" fill="#4D1556"/>
<circle cx="102.471" cy="356.556" r="2.44411" transform="rotate(-90 102.471 356.556)" fill="#4D1556"/>
<circle cx="102.471" cy="337.701" r="2.44411" transform="rotate(-90 102.471 337.701)" fill="#4D1556"/>
<circle cx="102.471" cy="318.847" r="2.44411" transform="rotate(-90 102.471 318.847)" fill="#4D1556"/>
<circle cx="102.471" cy="299.992" r="2.44411" transform="rotate(-90 102.471 299.992)" fill="#4D1556"/>
<circle cx="102.471" cy="281.138" r="2.44411" transform="rotate(-90 102.471 281.138)" fill="#4D1556"/>
<circle cx="102.471" cy="262.283" r="2.44411" transform="rotate(-90 102.471 262.283)" fill="#4D1556"/>
<circle cx="102.471" cy="243.429" r="2.44411" transform="rotate(-90 102.471 243.429)" fill="#4D1556"/>
<circle cx="102.471" cy="224.574" r="2.44411" transform="rotate(-90 102.471 224.574)" fill="#4D1556"/>
<circle cx="102.471" cy="205.72" r="2.44411" transform="rotate(-90 102.471 205.72)" fill="#4D1556"/>
<circle cx="102.471" cy="186.865" r="2.44411" transform="rotate(-90 102.471 186.865)" fill="#4D1556"/>
<circle cx="121.327" cy="356.556" r="2.44411" transform="rotate(-90 121.327 356.556)" fill="#4D1556"/>
<circle cx="121.327" cy="337.701" r="2.44411" transform="rotate(-90 121.327 337.701)" fill="#4D1556"/>
<circle cx="121.327" cy="318.847" r="2.44411" transform="rotate(-90 121.327 318.847)" fill="#4D1556"/>
<circle cx="121.327" cy="299.992" r="2.44411" transform="rotate(-90 121.327 299.992)" fill="#4D1556"/>
<circle cx="121.327" cy="281.138" r="2.44411" transform="rotate(-90 121.327 281.138)" fill="#4D1556"/>
<circle cx="121.327" cy="262.283" r="2.44411" transform="rotate(-90 121.327 262.283)" fill="#4D1556"/>
<circle cx="121.327" cy="243.429" r="2.44411" transform="rotate(-90 121.327 243.429)" fill="#4D1556"/>
<circle cx="121.327" cy="224.574" r="2.44411" transform="rotate(-90 121.327 224.574)" fill="#4D1556"/>
<circle cx="121.327" cy="205.72" r="2.44411" transform="rotate(-90 121.327 205.72)" fill="#4D1556"/>
<circle cx="121.327" cy="186.865" r="2.44411" transform="rotate(-90 121.327 186.865)" fill="#4D1556"/>
<circle cx="140.182" cy="356.556" r="2.44411" transform="rotate(-90 140.182 356.556)" fill="#4D1556"/>
<circle cx="140.182" cy="337.701" r="2.44411" transform="rotate(-90 140.182 337.701)" fill="#4D1556"/>
<circle cx="140.182" cy="318.847" r="2.44411" transform="rotate(-90 140.182 318.847)" fill="#4D1556"/>
<circle cx="140.182" cy="299.992" r="2.44411" transform="rotate(-90 140.182 299.992)" fill="#4D1556"/>
<circle cx="140.182" cy="281.138" r="2.44411" transform="rotate(-90 140.182 281.138)" fill="#4D1556"/>
<circle cx="140.182" cy="262.283" r="2.44411" transform="rotate(-90 140.182 262.283)" fill="#4D1556"/>
<circle cx="140.182" cy="243.429" r="2.44411" transform="rotate(-90 140.182 243.429)" fill="#4D1556"/>
<circle cx="140.182" cy="224.574" r="2.44411" transform="rotate(-90 140.182 224.574)" fill="#4D1556"/>
<circle cx="140.182" cy="205.72" r="2.44411" transform="rotate(-90 140.182 205.72)" fill="#4D1556"/>
<circle cx="140.182" cy="186.865" r="2.44411" transform="rotate(-90 140.182 186.865)" fill="#4D1556"/>
<circle cx="159.036" cy="356.556" r="2.44411" transform="rotate(-90 159.036 356.556)" fill="#4D1556"/>
<circle cx="159.036" cy="337.701" r="2.44411" transform="rotate(-90 159.036 337.701)" fill="#4D1556"/>
<circle cx="159.036" cy="318.847" r="2.44411" transform="rotate(-90 159.036 318.847)" fill="#4D1556"/>
<circle cx="159.036" cy="299.992" r="2.44411" transform="rotate(-90 159.036 299.992)" fill="#4D1556"/>
<circle cx="159.036" cy="281.138" r="2.44411" transform="rotate(-90 159.036 281.138)" fill="#4D1556"/>
<circle cx="159.036" cy="262.283" r="2.44411" transform="rotate(-90 159.036 262.283)" fill="#4D1556"/>
<circle cx="159.036" cy="243.429" r="2.44411" transform="rotate(-90 159.036 243.429)" fill="#4D1556"/>
<circle cx="159.036" cy="224.574" r="2.44411" transform="rotate(-90 159.036 224.574)" fill="#4D1556"/>
<circle cx="159.036" cy="205.72" r="2.44411" transform="rotate(-90 159.036 205.72)" fill="#4D1556"/>
<circle cx="159.036" cy="186.865" r="2.44411" transform="rotate(-90 159.036 186.865)" fill="#4D1556"/>
</g>
<g opacity="0.2">
<circle cx="175.167" cy="172.135" r="2.44411" transform="rotate(-90 175.167 172.135)" fill="#4D1556"/>
<circle cx="175.167" cy="153.28" r="2.44411" transform="rotate(-90 175.167 153.28)" fill="#4D1556"/>
<circle cx="175.167" cy="134.426" r="2.44411" transform="rotate(-90 175.167 134.426)" fill="#4D1556"/>
<circle cx="175.167" cy="115.571" r="2.44411" transform="rotate(-90 175.167 115.571)" fill="#4D1556"/>
<circle cx="175.167" cy="96.7165" r="2.44411" transform="rotate(-90 175.167 96.7165)" fill="#4D1556"/>
<circle cx="175.167" cy="77.862" r="2.44411" transform="rotate(-90 175.167 77.862)" fill="#4D1556"/>
<circle cx="175.167" cy="59.0075" r="2.44411" transform="rotate(-90 175.167 59.0075)" fill="#4D1556"/>
<circle cx="175.167" cy="40.1531" r="2.44411" transform="rotate(-90 175.167 40.1531)" fill="#4D1556"/>
<circle cx="175.167" cy="21.2986" r="2.44411" transform="rotate(-90 175.167 21.2986)" fill="#4D1556"/>
<circle cx="175.167" cy="2.44407" r="2.44411" transform="rotate(-90 175.167 2.44407)" fill="#4D1556"/>
<circle cx="194.02" cy="172.135" r="2.44411" transform="rotate(-90 194.02 172.135)" fill="#4D1556"/>
<circle cx="194.02" cy="153.28" r="2.44411" transform="rotate(-90 194.02 153.28)" fill="#4D1556"/>
<circle cx="194.02" cy="134.426" r="2.44411" transform="rotate(-90 194.02 134.426)" fill="#4D1556"/>
<circle cx="194.02" cy="115.571" r="2.44411" transform="rotate(-90 194.02 115.571)" fill="#4D1556"/>
<circle cx="194.02" cy="96.7165" r="2.44411" transform="rotate(-90 194.02 96.7165)" fill="#4D1556"/>
<circle cx="194.02" cy="77.862" r="2.44411" transform="rotate(-90 194.02 77.862)" fill="#4D1556"/>
<circle cx="194.02" cy="59.0075" r="2.44411" transform="rotate(-90 194.02 59.0075)" fill="#4D1556"/>
<circle cx="194.02" cy="40.1531" r="2.44411" transform="rotate(-90 194.02 40.1531)" fill="#4D1556"/>
<circle cx="194.02" cy="21.2986" r="2.44411" transform="rotate(-90 194.02 21.2986)" fill="#4D1556"/>
<circle cx="194.02" cy="2.44407" r="2.44411" transform="rotate(-90 194.02 2.44407)" fill="#4D1556"/>
<circle cx="212.876" cy="172.135" r="2.44411" transform="rotate(-90 212.876 172.135)" fill="#4D1556"/>
<circle cx="212.876" cy="153.28" r="2.44411" transform="rotate(-90 212.876 153.28)" fill="#4D1556"/>
<circle cx="212.876" cy="134.426" r="2.44411" transform="rotate(-90 212.876 134.426)" fill="#4D1556"/>
<circle cx="212.876" cy="115.571" r="2.44411" transform="rotate(-90 212.876 115.571)" fill="#4D1556"/>
<circle cx="212.876" cy="96.7165" r="2.44411" transform="rotate(-90 212.876 96.7165)" fill="#4D1556"/>
<circle cx="212.876" cy="77.862" r="2.44411" transform="rotate(-90 212.876 77.862)" fill="#4D1556"/>
<circle cx="212.876" cy="59.0075" r="2.44411" transform="rotate(-90 212.876 59.0075)" fill="#4D1556"/>
<circle cx="212.876" cy="40.1531" r="2.44411" transform="rotate(-90 212.876 40.1531)" fill="#4D1556"/>
<circle cx="212.876" cy="21.2986" r="2.44411" transform="rotate(-90 212.876 21.2986)" fill="#4D1556"/>
<circle cx="212.876" cy="2.44407" r="2.44411" transform="rotate(-90 212.876 2.44407)" fill="#4D1556"/>
<circle cx="231.731" cy="172.135" r="2.44411" transform="rotate(-90 231.731 172.135)" fill="#4D1556"/>
<circle cx="231.731" cy="153.28" r="2.44411" transform="rotate(-90 231.731 153.28)" fill="#4D1556"/>
<circle cx="231.731" cy="134.426" r="2.44411" transform="rotate(-90 231.731 134.426)" fill="#4D1556"/>
<circle cx="231.731" cy="115.571" r="2.44411" transform="rotate(-90 231.731 115.571)" fill="#4D1556"/>
<circle cx="231.731" cy="96.7165" r="2.44411" transform="rotate(-90 231.731 96.7165)" fill="#4D1556"/>
<circle cx="231.731" cy="77.862" r="2.44411" transform="rotate(-90 231.731 77.862)" fill="#4D1556"/>
<circle cx="231.731" cy="59.0075" r="2.44411" transform="rotate(-90 231.731 59.0075)" fill="#4D1556"/>
<circle cx="231.731" cy="40.1531" r="2.44411" transform="rotate(-90 231.731 40.1531)" fill="#4D1556"/>
<circle cx="231.731" cy="21.2986" r="2.44411" transform="rotate(-90 231.731 21.2986)" fill="#4D1556"/>
<circle cx="231.731" cy="2.44407" r="2.44411" transform="rotate(-90 231.731 2.44407)" fill="#4D1556"/>
<circle cx="250.585" cy="172.135" r="2.44411" transform="rotate(-90 250.585 172.135)" fill="#4D1556"/>
<circle cx="250.585" cy="153.28" r="2.44411" transform="rotate(-90 250.585 153.28)" fill="#4D1556"/>
<circle cx="250.585" cy="134.426" r="2.44411" transform="rotate(-90 250.585 134.426)" fill="#4D1556"/>
<circle cx="250.585" cy="115.571" r="2.44411" transform="rotate(-90 250.585 115.571)" fill="#4D1556"/>
<circle cx="250.585" cy="96.7165" r="2.44411" transform="rotate(-90 250.585 96.7165)" fill="#4D1556"/>
<circle cx="250.585" cy="77.862" r="2.44411" transform="rotate(-90 250.585 77.862)" fill="#4D1556"/>
<circle cx="250.585" cy="59.0075" r="2.44411" transform="rotate(-90 250.585 59.0075)" fill="#4D1556"/>
<circle cx="250.585" cy="40.1531" r="2.44411" transform="rotate(-90 250.585 40.1531)" fill="#4D1556"/>
<circle cx="250.585" cy="21.2986" r="2.44411" transform="rotate(-90 250.585 21.2986)" fill="#4D1556"/>
<circle cx="250.585" cy="2.44407" r="2.44411" transform="rotate(-90 250.585 2.44407)" fill="#4D1556"/>
</g>
<g opacity="0.2">
<circle cx="175.167" cy="356.556" r="2.44411" transform="rotate(-90 175.167 356.556)" fill="#4D1556"/>
<circle cx="175.167" cy="337.701" r="2.44411" transform="rotate(-90 175.167 337.701)" fill="#4D1556"/>
<circle cx="175.167" cy="318.847" r="2.44411" transform="rotate(-90 175.167 318.847)" fill="#4D1556"/>
<circle cx="175.167" cy="299.992" r="2.44411" transform="rotate(-90 175.167 299.992)" fill="#4D1556"/>
<circle cx="175.167" cy="281.138" r="2.44411" transform="rotate(-90 175.167 281.138)" fill="#4D1556"/>
<circle cx="175.167" cy="262.283" r="2.44411" transform="rotate(-90 175.167 262.283)" fill="#4D1556"/>
<circle cx="175.167" cy="243.429" r="2.44411" transform="rotate(-90 175.167 243.429)" fill="#4D1556"/>
<circle cx="175.167" cy="224.574" r="2.44411" transform="rotate(-90 175.167 224.574)" fill="#4D1556"/>
<circle cx="175.167" cy="205.72" r="2.44411" transform="rotate(-90 175.167 205.72)" fill="#4D1556"/>
<circle cx="175.167" cy="186.865" r="2.44411" transform="rotate(-90 175.167 186.865)" fill="#4D1556"/>
<circle cx="194.02" cy="356.556" r="2.44411" transform="rotate(-90 194.02 356.556)" fill="#4D1556"/>
<circle cx="194.02" cy="337.701" r="2.44411" transform="rotate(-90 194.02 337.701)" fill="#4D1556"/>
<circle cx="194.02" cy="318.847" r="2.44411" transform="rotate(-90 194.02 318.847)" fill="#4D1556"/>
<circle cx="194.02" cy="299.992" r="2.44411" transform="rotate(-90 194.02 299.992)" fill="#4D1556"/>
<circle cx="194.02" cy="281.138" r="2.44411" transform="rotate(-90 194.02 281.138)" fill="#4D1556"/>
<circle cx="194.02" cy="262.283" r="2.44411" transform="rotate(-90 194.02 262.283)" fill="#4D1556"/>
<circle cx="194.02" cy="243.429" r="2.44411" transform="rotate(-90 194.02 243.429)" fill="#4D1556"/>
<circle cx="194.02" cy="224.574" r="2.44411" transform="rotate(-90 194.02 224.574)" fill="#4D1556"/>
<circle cx="194.02" cy="205.72" r="2.44411" transform="rotate(-90 194.02 205.72)" fill="#4D1556"/>
<circle cx="194.02" cy="186.865" r="2.44411" transform="rotate(-90 194.02 186.865)" fill="#4D1556"/>
<circle cx="212.876" cy="356.556" r="2.44411" transform="rotate(-90 212.876 356.556)" fill="#4D1556"/>
<circle cx="212.876" cy="337.701" r="2.44411" transform="rotate(-90 212.876 337.701)" fill="#4D1556"/>
<circle cx="212.876" cy="318.847" r="2.44411" transform="rotate(-90 212.876 318.847)" fill="#4D1556"/>
<circle cx="212.876" cy="299.992" r="2.44411" transform="rotate(-90 212.876 299.992)" fill="#4D1556"/>
<circle cx="212.876" cy="281.138" r="2.44411" transform="rotate(-90 212.876 281.138)" fill="#4D1556"/>
<circle cx="212.876" cy="262.283" r="2.44411" transform="rotate(-90 212.876 262.283)" fill="#4D1556"/>
<circle cx="212.876" cy="243.429" r="2.44411" transform="rotate(-90 212.876 243.429)" fill="#4D1556"/>
<circle cx="212.876" cy="224.574" r="2.44411" transform="rotate(-90 212.876 224.574)" fill="#4D1556"/>
<circle cx="212.876" cy="205.72" r="2.44411" transform="rotate(-90 212.876 205.72)" fill="#4D1556"/>
<circle cx="212.876" cy="186.865" r="2.44411" transform="rotate(-90 212.876 186.865)" fill="#4D1556"/>
<circle cx="231.731" cy="356.556" r="2.44411" transform="rotate(-90 231.731 356.556)" fill="#4D1556"/>
<circle cx="231.731" cy="337.701" r="2.44411" transform="rotate(-90 231.731 337.701)" fill="#4D1556"/>
<circle cx="231.731" cy="318.847" r="2.44411" transform="rotate(-90 231.731 318.847)" fill="#4D1556"/>
<circle cx="231.731" cy="299.992" r="2.44411" transform="rotate(-90 231.731 299.992)" fill="#4D1556"/>
<circle cx="231.731" cy="281.138" r="2.44411" transform="rotate(-90 231.731 281.138)" fill="#4D1556"/>
<circle cx="231.731" cy="262.283" r="2.44411" transform="rotate(-90 231.731 262.283)" fill="#4D1556"/>
<circle cx="231.731" cy="243.429" r="2.44411" transform="rotate(-90 231.731 243.429)" fill="#4D1556"/>
<circle cx="231.731" cy="224.574" r="2.44411" transform="rotate(-90 231.731 224.574)" fill="#4D1556"/>
<circle cx="231.731" cy="205.72" r="2.44411" transform="rotate(-90 231.731 205.72)" fill="#4D1556"/>
<circle cx="231.731" cy="186.865" r="2.44411" transform="rotate(-90 231.731 186.865)" fill="#4D1556"/>
<circle cx="250.585" cy="356.556" r="2.44411" transform="rotate(-90 250.585 356.556)" fill="#4D1556"/>
<circle cx="250.585" cy="337.701" r="2.44411" transform="rotate(-90 250.585 337.701)" fill="#4D1556"/>
<circle cx="250.585" cy="318.847" r="2.44411" transform="rotate(-90 250.585 318.847)" fill="#4D1556"/>
<circle cx="250.585" cy="299.992" r="2.44411" transform="rotate(-90 250.585 299.992)" fill="#4D1556"/>
<circle cx="250.585" cy="281.138" r="2.44411" transform="rotate(-90 250.585 281.138)" fill="#4D1556"/>
<circle cx="250.585" cy="262.283" r="2.44411" transform="rotate(-90 250.585 262.283)" fill="#4D1556"/>
<circle cx="250.585" cy="243.429" r="2.44411" transform="rotate(-90 250.585 243.429)" fill="#4D1556"/>
<circle cx="250.585" cy="224.574" r="2.44411" transform="rotate(-90 250.585 224.574)" fill="#4D1556"/>
<circle cx="250.585" cy="205.72" r="2.44411" transform="rotate(-90 250.585 205.72)" fill="#4D1556"/>
<circle cx="250.585" cy="186.865" r="2.44411" transform="rotate(-90 250.585 186.865)" fill="#4D1556"/>
</g>
</svg>
