<svg width="24" height="24" viewBox="0 0 24 24" fill="none" xmlns="http://www.w3.org/2000/svg">
<path d="M12.1668 9.97003C9.06763 6.87123 5.66935 5.24507 4.57618 6.33784C4.45622 6.46349 4.36796 6.61588 4.31868 6.78247L4.30108 6.76488L3.25709 11.0432L2.21749 15.3087L0.985174 20.3596L0.205078 23.5583L4.82368 21.8106L10.6982 19.5879L15.3848 17.8146L15.3792 17.809C15.5361 17.7589 15.6796 17.6741 15.799 17.5607C16.8922 16.4675 15.266 13.0692 12.1668 9.97003Z" fill="#DD1C4B"/>
<path d="M12.1672 9.96898C9.06808 6.8699 5.66969 5.24368 4.57666 6.33671C3.48363 7.42974 5.10985 10.8281 8.20893 13.9272C11.308 17.0263 14.7064 18.6525 15.7994 17.5595C16.8925 16.4664 15.2662 13.0681 12.1672 9.96898Z" fill="#D1E3EE"/>
<path d="M14.9593 17.953C14.3997 17.9628 13.8446 17.8526 13.3312 17.6299L9.50066 19.0793L3.62415 21.3001L0.472974 22.4924L0.205078 23.5908L4.82368 21.843L10.6982 19.6203L14.9993 17.9929L14.9593 17.953Z" fill="#B21D48"/>
<path d="M19.7955 14.7943C19.7476 14.7941 19.7001 14.7856 19.6551 14.7691C17.6253 14.0086 15.4311 13.7954 13.2928 14.1509L11.8646 14.3888C11.646 14.42 11.4434 14.2681 11.4123 14.0495C11.3821 13.8383 11.5231 13.6406 11.7326 13.6004L13.1613 13.3604C15.4381 12.9821 17.7743 13.209 19.9358 14.0182C20.1437 14.0929 20.2516 14.3219 20.1769 14.5297C20.1192 14.6902 19.9661 14.7965 19.7955 14.7943Z" fill="#FFBF41"/>
<path d="M12.5987 12.3952C12.3779 12.3939 12.1999 12.2138 12.2012 11.993C12.2021 11.8406 12.2895 11.702 12.4267 11.6355L20.8234 7.63709C21.0229 7.54213 21.2615 7.62679 21.3564 7.82622C21.4514 8.02564 21.3667 8.26424 21.1673 8.35921L12.7706 12.3576C12.7168 12.3828 12.6581 12.3956 12.5987 12.3952Z" fill="#FFBF41"/>
<path d="M7.92302 11.5955C7.87029 11.5956 7.81806 11.5851 7.76948 11.5647C7.56565 11.4797 7.46934 11.2456 7.55436 11.0418V11.0417L8.13573 9.64665C9.03023 7.50924 9.2388 5.14676 8.7327 2.88569C8.68082 2.67102 8.81282 2.45501 9.02744 2.40313C9.2421 2.35125 9.45812 2.48324 9.51 2.69786C9.51115 2.70261 9.5122 2.70736 9.5132 2.71216C10.0554 5.13426 9.83182 7.66498 8.87345 9.95453L8.29167 11.3496C8.2296 11.4984 8.08425 11.5953 7.92302 11.5955Z" fill="#FFBF41"/>
<path d="M21.7958 16.3936C22.2374 16.3936 22.5955 16.0355 22.5955 15.5939C22.5955 15.1522 22.2374 14.7942 21.7958 14.7942C21.3541 14.7942 20.9961 15.1522 20.9961 15.5939C20.9961 16.0355 21.3541 16.3936 21.7958 16.3936Z" fill="#D5557E"/>
<path d="M12.2001 5.19801C12.6417 5.19801 12.9998 4.83998 12.9998 4.39832C12.9998 3.95667 12.6417 3.59863 12.2001 3.59863C11.7584 3.59863 11.4004 3.95667 11.4004 4.39832C11.4004 4.83998 11.7584 5.19801 12.2001 5.19801Z" fill="#DD95C1"/>
<path d="M8.60047 1.59938C8.15879 1.59938 7.80078 1.24137 7.80078 0.799688C7.80078 0.358011 8.15879 0 8.60047 0C9.04215 0 9.40016 0.358011 9.40016 0.799688C9.40016 1.24137 9.04215 1.59938 8.60047 1.59938Z" fill="#7FCCCB"/>
<path d="M19.7963 3.1988C19.5755 3.1988 19.3965 3.01977 19.3965 2.79896V2.39911C19.3965 2.1783 19.5755 1.99927 19.7963 1.99927C20.0171 1.99927 20.1962 2.1783 20.1962 2.39911V2.79896C20.1962 3.01977 20.0172 3.1988 19.7963 3.1988Z" fill="#2276BB"/>
<path d="M19.7963 1.19953C19.5755 1.19953 19.3965 1.0205 19.3965 0.799689V0.399844C19.3965 0.17903 19.5755 0 19.7963 0C20.0171 0 20.1962 0.17903 20.1962 0.399844V0.799689C20.1962 1.0205 20.0172 1.19953 19.7963 1.19953Z" fill="#2276BB"/>
<path d="M20.997 1.99915H20.5971C20.3763 1.99915 20.1973 1.82012 20.1973 1.59931C20.1973 1.37849 20.3763 1.19946 20.5971 1.19946H20.997C21.2178 1.19946 21.3968 1.37849 21.3968 1.59931C21.3968 1.82012 21.2178 1.99915 20.997 1.99915Z" fill="#2276BB"/>
<path d="M18.997 1.99915H18.5971C18.3763 1.99915 18.1973 1.82012 18.1973 1.59931C18.1973 1.37849 18.3763 1.19946 18.5971 1.19946H18.997C19.2178 1.19946 19.3968 1.37849 19.3968 1.59931C19.3968 1.82012 19.2178 1.99915 18.997 1.99915Z" fill="#2276BB"/>
<path d="M3.37834 11.5955C3.33356 11.4243 3.29358 11.2516 3.25639 11.0757L2.2168 15.3412L2.29677 16.3164C2.47105 18.3956 3.3642 20.349 4.82258 21.8411L10.6975 19.6204C10.6655 19.6104 10.6323 19.6032 10.6003 19.5924C7.03797 18.2566 4.34537 15.2751 3.37834 11.5955Z" fill="white"/>
<path d="M10.6975 19.6205C10.6656 19.6105 10.6324 19.6033 10.6004 19.5925C10.2155 19.4468 9.83858 19.2809 9.47123 19.0955L4.17969 21.0975C4.38031 21.3577 4.59508 21.6066 4.82304 21.8432L10.6975 19.6205Z" fill="#F6F6E7"/>
<path d="M16.9979 4.78979V6.79741H14.9902V4.78979H16.9979Z" fill="#C9DA53"/>
<path d="M9.80013 11.9953C9.57932 11.9952 9.40034 11.8162 9.40039 11.5954C9.40044 11.4821 9.44847 11.3742 9.53264 11.2984L13.5311 7.69978C13.6981 7.55528 13.9506 7.57353 14.0951 7.74051C14.2355 7.90285 14.2228 8.14715 14.0661 8.29395L10.0676 11.8925C9.99426 11.9587 9.89895 11.9952 9.80013 11.9953Z" fill="#FFBF41"/>
<path d="M21.3959 10.3961C21.1751 10.3961 20.9961 10.217 20.9961 9.99622V9.59638C20.9961 9.37556 21.1751 9.19653 21.3959 9.19653C21.6168 9.19653 21.7958 9.37556 21.7958 9.59638V9.99622C21.7958 10.217 21.6168 10.3961 21.3959 10.3961Z" fill="#FFDB43"/>
<path d="M22.8104 9.81012C22.7043 9.81042 22.6025 9.76824 22.5278 9.69297L22.2451 9.41028C22.0917 9.25144 22.096 8.99829 22.2549 8.8449C22.4098 8.69526 22.6555 8.69526 22.8104 8.8449L23.0931 9.12759C23.2493 9.28378 23.2492 9.53693 23.093 9.69307C23.0181 9.76799 22.9165 9.81012 22.8104 9.81012Z" fill="#FFDB43"/>
<path d="M23.3954 8.39686H22.9955C22.7747 8.39686 22.5957 8.21783 22.5957 7.99701C22.5957 7.7762 22.7747 7.59717 22.9955 7.59717H23.3954C23.6162 7.59717 23.7952 7.7762 23.7952 7.99701C23.7952 8.21783 23.6163 8.39686 23.3954 8.39686Z" fill="#FFDB43"/>
<path d="M22.5287 7.26596C22.3078 7.26591 22.1289 7.08688 22.1289 6.86602C22.1289 6.76001 22.171 6.65835 22.246 6.58343L22.5287 6.30074C22.6875 6.1473 22.9406 6.1517 23.094 6.31054C23.2437 6.46548 23.2437 6.71113 23.094 6.86612L22.8114 7.14881C22.7364 7.22378 22.6347 7.26596 22.5287 7.26596Z" fill="#FFDB43"/>
<path d="M21.3959 6.79743C21.1751 6.79743 20.9961 6.6184 20.9961 6.39759V5.99774C20.9961 5.77693 21.1751 5.5979 21.3959 5.5979C21.6168 5.5979 21.7958 5.77693 21.7958 5.99774V6.39759C21.7958 6.6184 21.6168 6.79743 21.3959 6.79743Z" fill="#FFDB43"/>
<path d="M20.2655 7.26593C20.1595 7.26593 20.0578 7.22375 19.9828 7.14878L19.7001 6.86609C19.5467 6.70725 19.5511 6.4541 19.7099 6.30071C19.8649 6.15107 20.1105 6.15107 20.2655 6.30071L20.5482 6.5834C20.7043 6.73959 20.7043 6.99274 20.5481 7.14888C20.4732 7.2238 20.3715 7.26593 20.2655 7.26593Z" fill="#FFDB43"/>
<path d="M2.2043 0.399902L2.82206 1.65181L4.20352 1.85254L3.20391 2.82696L3.43982 4.20282L2.2043 3.55307L0.968781 4.20282L1.20469 2.82696L0.205078 1.85254L1.58654 1.65181L2.2043 0.399902Z" fill="#FFDB43"/>
<path d="M23.6685 21.6579C23.4783 20.984 23.0404 20.4068 22.4426 20.0422L22.2778 19.7951C21.3542 18.4138 19.9017 17.4745 18.263 17.1989C18.0444 17.1677 17.8419 17.3196 17.8107 17.5383C17.7806 17.7495 17.9216 17.9471 18.1311 17.9874C19.313 18.188 20.3901 18.7885 21.1823 19.6883C20.5163 19.8081 19.9338 20.2081 19.5829 20.7867C19.1523 21.5579 19.4284 22.5322 20.1997 22.9628C20.9709 23.3935 21.9452 23.1173 22.3758 22.3461C22.5403 22.0286 22.6291 21.6772 22.6353 21.3197C23.0607 21.9376 23.0948 22.7445 22.7229 23.3961C22.6102 23.586 22.6728 23.8313 22.8628 23.944C23.0527 24.0566 23.298 23.994 23.4107 23.8041C23.4143 23.798 23.4177 23.7918 23.421 23.7855C23.7843 23.1378 23.8734 22.3717 23.6685 21.6579ZM21.6785 21.9558C21.4651 22.3425 20.9786 22.483 20.592 22.2696C20.2053 22.0561 20.0648 21.5697 20.2782 21.183C20.2794 21.1809 20.2806 21.1787 20.2818 21.1765C20.5178 20.7902 20.9158 20.5312 21.3646 20.472C21.4341 20.4701 21.5029 20.4861 21.5645 20.5184C21.902 20.7067 21.92 21.5232 21.6785 21.9558Z" fill="#2BB3CE"/>
</svg>
